:FULLY-SPECIFIED
:FORCE-ALL-JOINTS-BE-3DOF
:DEGREES
510
root -4.8392 15.0344 -42.2191 368.214 -12.4825 343.827
lfemur -59.275 38.2258 -14.5136
ltibia 73.1897 0 0
lfoot -21.837 30.1616 0
ltoes 10.9176 0 0
rfemur -9.44821 -17.6499 2.46127
rtibia 47.1116 0 0
rfoot 10.1807 -15.8491 0
rtoes 7.89148 0 0
lowerback 15.2337 1.45454 -4.84116
upperback -1.63096 1.38074 3.86447
thorax -10.6511 1.08772 6.64932
lowerneck 3.21299 -14.7533 -17.864
upperneck 5.82158 -21.5722 20.3196
head 5.49705 -10.9021 7.69055
lclavicle -4.371e-14 -4.14675e-15 0
lhumerus 10.38 -61.102 81.1424
lradius 83.2354 0 0
lwrist 34.0729 0 0
lhand -6.39034 38.6351 0
lfingers 7.12502 0 0
lthumb 19.4386 67.418 0
rclavicle -4.371e-14 -4.14675e-15 0
rhumerus 60.496 32.4759 -22.6524
rradius 113.425 0 0
rwrist -30.3155 0 0
rhand 7.85424 -13.8419 0
rfingers 7.12502 0 0
rthumb 33.0869 -40.8681 0
511
root -4.90249 15.0224 -42.2442 368.978 -15.0044 343.118
lfemur -58.0209 37.4861 -12.8712
ltibia 73.2768 0 0
lfoot -21.2589 29.0433 0
ltoes 9.29848 0 0
rfemur -9.7195 -18.3743 2.05723
rtibia 46.6693 0 0
rfoot 9.76152 -14.9118 0
rtoes 6.68685 0 0
lowerback 15.4322 1.53585 -5.00819
upperback -1.58762 1.43225 3.78075
thorax -10.7291 1.11933 6.63816
lowerneck 2.79753 -14.5917 -17.9817
upperneck 6.4821 -21.3314 20.0547
head 5.69148 -10.7673 7.62126
lclavicle -4.25131e-14 -3.93278e-15 0
lhumerus 7.42363 -58.9083 82.7788
lradius 84.1868 0 0
lwrist 35.8554 0 0
lhand -7.40773 39.2769 0
lfingers 7.12502 0 0
lthumb 18.4583 68.1254 0
rclavicle -4.25131e-14 -3.93278e-15 0
rhumerus 56.4446 32.7492 -24.5003
rradius 115.475 0 0
rwrist -31.7122 0 0
rhand 9.31813 -13.7829 0
rfingers 7.12502 0 0
rthumb 34.4854 -40.5902 0
512
root -4.96578 15.0103 -42.2693 369.755 -17.0095 342.383
lfemur -56.7402 36.6503 -11.3342
ltibia 73.4063 0 0
lfoot -20.7672 27.9491 0
ltoes 7.7076 0 0
rfemur -10.1872 -18.9465 1.77838
rtibia 46.4785 0 0
rfoot 9.21719 -14.0728 0
rtoes 5.46221 0 0
lowerback 15.6557 1.59503 -5.18634
upperback -1.53118 1.45167 3.69925
thorax -10.8008 1.13568 6.64442
lowerneck 2.41394 -14.4484 -18.0969
upperneck 7.08895 -21.1134 19.8121
head 5.86975 -10.6456 7.56
lclavicle -4.07002e-14 -3.8726e-15 0
lhumerus 4.46054 -56.7506 84.479
lradius 85.1294 0 0
lwrist 37.5081 0 0
lhand -8.42178 39.9153 0
lfingers 7.12502 0 0
lthumb 17.4814 68.8306 0
rclavicle -4.07002e-14 -3.8726e-15 0
rhumerus 52.4614 33.0305 -26.3267
rradius 117.647 0 0
rwrist -33.1713 0 0
rhand 10.8291 -13.7771 0
rfingers 7.12502 0 0
rthumb 35.9292 -40.361 0
513
root -5.02907 14.9983 -42.2945 370.507 -18.6042 341.67
lfemur -55.3991 35.722 -9.89247
ltibia 73.5522 0 0
lfoot -20.3522 26.8819 0
ltoes 6.12983 0 0
rfemur -10.8552 -19.3866 1.61304
rtibia 46.5201 0 0
rfoot 8.55717 -13.3038 0
rtoes 4.22948 0 0
lowerback 15.8986 1.63558 -5.374
upperback -1.46322 1.44412 3.6184
thorax -10.8655 1.13908 6.66414
lowerneck 2.05725 -14.3172 -18.205
upperneck 7.64522 -20.9092 19.5813
head 6.0311 -10.5322 7.5033
lclavicle -3.83251e-14 -3.95394e-15 0
lhumerus 1.45532 -54.6112 86.2398
lradius 86.0714 0 0
lwrist 39.0593 0 0
lhand -9.43047 40.549 0
lfingers 7.12502 0 0
lthumb 16.5097 69.5322 0
rclavicle -3.83251e-14 -3.95394e-15 0
rhumerus 48.5334 33.3045 -28.1406
rradius 119.858 0 0
rwrist -34.6436 0 0
rhand 12.3487 -13.8223 0
rfingers 7.12502 0 0
rthumb 37.3812 -40.1824 0
514
root -5.09236 14.9862 -42.3196 371.193 -19.8947 341.026
lfemur -53.9636 34.7048 -8.53619
ltibia 73.6886 0 0
lfoot -20.0047 25.8443 0
ltoes 4.55007 0 0
rfemur -11.7274 -19.7151 1.54957
rtibia 46.7749 0 0
rfoot 7.79092 -12.5767 0
rtoes 3.00061 0 0
lowerback 16.1549 1.66101 -5.56959
upperback -1.38534 1.41471 3.53667
thorax -10.9224 1.13188 6.69338
lowerneck 1.72254 -14.1919 -18.3011
upperneck 8.15401 -20.7097 19.3519
head 6.17476 -10.4226 7.44763
lclavicle -3.54418e-14 -4.1646e-15 0
lhumerus -1.62744 -52.4727 88.0581
lradius 87.0214 0 0
lwrist 40.5375 0 0
lhand -10.4318 41.1769 0
lfingers 7.12502 0 0
lthumb 15.5452 70.229 0
rclavicle -3.54418e-14 -4.1646e-15 0
rhumerus 44.6479 33.5564 -29.9513
rradius 122.028 0 0
rwrist -36.0803 0 0
rhand 13.8385 -13.9168 0
rfingers 7.12502 0 0
rthumb 38.8048 -40.0564 0
515
root -5.15565 14.9742 -42.3447 371.773 -20.9875 340.499
lfemur -52.3999 33.6022 -7.25537
ltibia 73.7896 0 0
lfoot -19.7152 24.8391 0
ltoes 2.95322 0 0
rfemur -12.8075 -19.9521 1.57629
rtibia 47.2239 0 0
rfoot 6.92791 -11.8633 0
rtoes 1.78752 0 0
lowerback 16.4187 1.67482 -5.77151
upperback -1.29912 1.36856 3.45251
thorax -10.9709 1.11641 6.7282
lowerneck 1.40486 -14.0665 -18.3807
upperneck 8.61839 -20.5061 19.1134
head 6.29995 -10.3118 7.38951
lclavicle -3.21043e-14 -4.49232e-15 0
lhumerus -4.82314 -50.3175 89.9309
lradius 87.9878 0 0
lwrist 41.971 0 0
lhand -11.4237 41.7978 0
lfingers 7.12502 0 0
lthumb 14.5899 70.9197 0
rclavicle -3.21043e-14 -4.49232e-15 0
rhumerus 40.792 33.771 -31.7679
rradius 124.075 0 0
rwrist -37.4321 0 0
rhand 15.26 -14.0584 0
rfingers 7.12502 0 0
rthumb 40.1627 -39.9849 0
516
root -5.21893 14.9621 -42.3698 372.209 -21.9887 340.137
lfemur -50.674 32.4179 -6.04008
ltibia 73.8293 0 0
lfoot -19.4743 23.869 0
ltoes 1.32419 0 0
rfemur -14.0994 -20.1181 1.68154
rtibia 47.8481 0 0
rfoot 5.97762 -11.1355 0
rtoes 0.602135 0 0
lowerback 16.6844 1.68051 -5.97816
upperback -1.20614 1.31077 3.36435
thorax -11.0103 1.09499 6.76464
lowerneck 1.09926 -13.9346 -18.439
upperneck 9.04148 -20.2891 18.8554
head 6.40592 -10.1952 7.32543
lclavicle -2.83664e-14 -4.92487e-15 0
lhumerus -8.16719 -48.1281 91.8549
lradius 88.979 0 0
lwrist 43.3882 0 0
lhand -12.4042 42.4107 0
lfingers 7.12502 0 0
lthumb 13.6457 71.6032 0
rclavicle -2.83664e-14 -4.92487e-15 0
rhumerus 36.9528 33.9332 -33.5998
rradius 125.919 0 0
rwrist -38.65 0 0
rhand 16.5746 -14.2455 0
rfingers 7.12502 0 0
rthumb 41.4183 -39.9698 0
517
root -5.28222 14.9501 -42.3949 372.46 -23.0046 339.986
lfemur -48.7522 31.1553 -4.88035
ltibia 73.7819 0 0
lfoot -19.2726 22.9369 0
ltoes -0.352127 0 0
rfemur -15.607 -20.2333 1.85368
rtibia 48.6282 0 0
rfoot 4.94952 -10.3651 0
rtoes -0.543601 0 0
lowerback 16.946 1.68158 -6.18795
upperback -1.10799 1.24646 3.27067
thorax -11.0399 1.06997 6.79876
lowerneck 0.800798 -13.7901 -18.4714
upperneck 9.42634 -20.05 18.5673
head 6.49188 -10.068 7.25189
lclavicle -2.42823e-14 -5.45003e-15 0
lhumerus -11.695 -45.8869 93.8271
lradius 90.0034 0 0
lwrist 44.8175 0 0
lhand -13.3713 43.0144 0
lfingers 7.12502 0 0
lthumb 12.7145 72.278 0
rclavicle -2.42823e-14 -5.45003e-15 0
rhumerus 33.1176 34.0279 -35.456
rradius 127.479 0 0
rwrist -39.685 0 0
rhand 17.7441 -14.4758 0
rfingers 7.12502 0 0
rthumb 42.5344 -40.013 0
518
root -5.34551 14.938 -42.42 372.487 -24.1417 340.095
lfemur -46.6004 29.8181 -3.76624
ltibia 73.6213 0 0
lfoot -19.1006 22.0453 0
ltoes -2.09082 0 0
rfemur -17.3341 -20.318 2.08103
rtibia 49.5452 0 0
rfoot 3.85308 -9.52397 0
rtoes -1.63776 0 0
lowerback 17.1978 1.68153 -6.39927
upperback -1.00625 1.18074 3.16989
thorax -11.0591 1.04367 6.82661
lowerneck 0.504536 -13.6269 -18.4732
upperneck 9.77608 -19.7796 18.2388
head 6.55707 -9.92562 7.1654
lclavicle -1.99057e-14 -6.05554e-15 0
lhumerus -15.442 -43.5763 95.8444
lradius 91.0694 0 0
lwrist 46.2874 0 0
lhand -14.3229 43.6078 0
lfingers 7.12502 0 0
lthumb 11.7983 72.9431 0
rclavicle -1.99057e-14 -6.05554e-15 0
rhumerus 29.2734 34.0401 -37.3458
rradius 128.672 0 0
rwrist -40.488 0 0
rhand 18.7297 -14.7477 0
rfingers 7.12502 0 0
rthumb 43.4743 -40.1164 0
